<?xml version="1.0" standalone="no"?>
<svg viewBox="0 0 200 200" xmlns="http://www.w3.org/2000/svg">
  <path fill="#001845" d="M44.9,-78.6C58.2,-70.1,69,-58.1,75.9,-44.4C82.8,-30.7,85.8,-15.4,86.4,0.3C86.9,16,85,32,77.9,45.4C70.8,58.7,58.6,69.4,44.7,78.1C30.9,86.8,15.4,93.4,0,93.4C-15.4,93.4,-30.9,86.8,-44.6,78C-58.2,69.3,-70.1,58.3,-77.1,45C-84.1,31.6,-86.1,15.8,-85.3,0.5C-84.4,-14.8,-80.7,-29.6,-74,-43.4C-67.2,-57.2,-57.5,-69.9,-44.7,-78.7C-31.8,-87.5,-15.9,-92.4,-0.1,-92.3C15.8,-92.2,31.6,-87.1,44.9,-78.6Z" transform="translate(100 100)" />
</svg>
