<?xml version="1.0" standalone="no"?>
<svg viewBox="0 0 200 200" xmlns="http://www.w3.org/2000/svg">
  <path fill="#0466C8" d="M44.6,-76.6C56.8,-70.2,65,-56.2,72.4,-42.2C79.7,-28.2,86,-14.1,86.9,0.5C87.8,15.1,83.1,30.2,75.2,43.3C67.4,56.4,56.4,67.4,43.3,76.1C30.2,84.7,15.1,90.9,-0.5,91.7C-16.1,92.6,-32.2,88.1,-43.7,78.6C-55.2,69.1,-62.2,54.5,-70.6,40.6C-79.1,26.6,-89,13.3,-91.5,-1.5C-94.1,-16.2,-89.2,-32.5,-79.7,-44.5C-70.1,-56.5,-55.9,-64.3,-41.8,-69.6C-27.7,-74.9,-13.9,-77.8,1.2,-79.8C16.2,-81.8,32.4,-83,44.6,-76.6Z" transform="translate(100 100)" />
</svg>
