<?xml version="1.0" standalone="no"?>
<svg viewBox="0 0 200 200" xmlns="http://www.w3.org/2000/svg">
  <path fill="#023E7D" d="M46.4,-80.3C60.2,-72.4,71.5,-60.1,78,-46C84.5,-31.8,86.3,-15.9,85.4,-0.5C84.5,14.9,81,29.8,73.6,42.5C66.2,55.1,55.1,65.6,42.2,73.4C29.3,81.2,14.6,86.4,-0.9,88C-16.5,89.6,-33,87.6,-46.4,80.1C-59.7,72.6,-70,59.5,-76.9,45.2C-83.8,30.9,-87.2,15.5,-86.8,0.2C-86.4,-15,-82.1,-29.9,-74.5,-42.9C-66.9,-55.9,-55.9,-67,-43,-75.3C-30,-83.6,-15,-89.3,0.7,-90.4C16.3,-91.6,32.6,-88.2,46.4,-80.3Z" transform="translate(100 100)" />
</svg>
